<mxfile host="app.diagrams.net" modified="2023-08-31T11:47:58.222Z" agent="Mozilla/5.0 (Windows NT 10.0; Win64; x64) AppleWebKit/537.36 (KHTML, like Gecko) Chrome/116.0.0.0 Safari/537.36 Edg/116.0.1938.62" etag="xh7tEIwzkufuTc_WnVrO" version="21.7.1" type="device">
  <diagram name="PÃ¡gina-1" id="GctLhuAFIAFyEakBsvAy">
    <mxGraphModel dx="954" dy="658" grid="1" gridSize="10" guides="1" tooltips="1" connect="1" arrows="1" fold="1" page="1" pageScale="1" pageWidth="827" pageHeight="1169" math="0" shadow="0">
      <root>
        <mxCell id="0" />
        <mxCell id="1" parent="0" />
        <mxCell id="SX1S4WyIroW91x6uDoyp-1" value="Project" style="rounded=1;arcSize=10;whiteSpace=wrap;html=1;align=center;" vertex="1" parent="1">
          <mxGeometry x="481" y="110" width="134" height="60" as="geometry" />
        </mxCell>
        <mxCell id="SX1S4WyIroW91x6uDoyp-2" value="Task" style="rounded=1;arcSize=10;whiteSpace=wrap;html=1;align=center;" vertex="1" parent="1">
          <mxGeometry x="213" y="110" width="134" height="60" as="geometry" />
        </mxCell>
        <mxCell id="SX1S4WyIroW91x6uDoyp-3" value="User" style="rounded=1;arcSize=10;whiteSpace=wrap;html=1;align=center;" vertex="1" parent="1">
          <mxGeometry x="347" y="280" width="134" height="60" as="geometry" />
        </mxCell>
        <mxCell id="SX1S4WyIroW91x6uDoyp-4" value="" style="fontSize=12;html=1;endArrow=ERoneToMany;rounded=0;startSize=8;endSize=8;entryX=1;entryY=0.5;entryDx=0;entryDy=0;exitX=0;exitY=0.5;exitDx=0;exitDy=0;" edge="1" parent="1" source="SX1S4WyIroW91x6uDoyp-1" target="SX1S4WyIroW91x6uDoyp-2">
          <mxGeometry width="100" height="100" relative="1" as="geometry">
            <mxPoint x="393" y="310" as="sourcePoint" />
            <mxPoint x="493" y="210" as="targetPoint" />
          </mxGeometry>
        </mxCell>
        <mxCell id="SX1S4WyIroW91x6uDoyp-6" value="" style="fontSize=12;html=1;endArrow=ERmany;startArrow=ERmany;rounded=0;startSize=8;endSize=8;edgeStyle=orthogonalEdgeStyle;curved=1;entryX=0.5;entryY=1;entryDx=0;entryDy=0;exitX=1;exitY=0.5;exitDx=0;exitDy=0;" edge="1" parent="1" source="SX1S4WyIroW91x6uDoyp-3" target="SX1S4WyIroW91x6uDoyp-1">
          <mxGeometry width="100" height="100" relative="1" as="geometry">
            <mxPoint x="533" y="300" as="sourcePoint" />
            <mxPoint x="427" y="180" as="targetPoint" />
          </mxGeometry>
        </mxCell>
        <mxCell id="SX1S4WyIroW91x6uDoyp-8" value="" style="fontSize=12;html=1;endArrow=ERmany;startArrow=none;rounded=0;startSize=8;endSize=8;edgeStyle=orthogonalEdgeStyle;curved=1;entryX=0.5;entryY=1;entryDx=0;entryDy=0;exitX=0;exitY=0.5;exitDx=0;exitDy=0;startFill=0;" edge="1" parent="1" source="SX1S4WyIroW91x6uDoyp-3" target="SX1S4WyIroW91x6uDoyp-2">
          <mxGeometry width="100" height="100" relative="1" as="geometry">
            <mxPoint x="250" y="320" as="sourcePoint" />
            <mxPoint x="317" y="180" as="targetPoint" />
          </mxGeometry>
        </mxCell>
      </root>
    </mxGraphModel>
  </diagram>
</mxfile>
